<svg width="48" height="48" viewBox="0 0 48 48" fill="none" xmlns="http://www.w3.org/2000/svg">
<g clip-path="url(#clip0_280_226)">
<g clip-path="url(#clip1_280_226)">
<path opacity="0.8" d="M42.054 8.23427L39.8109 24.0218L24.0234 21.7787L26.2665 5.99121L42.054 8.23427Z" fill="#A295AE"/>
<path opacity="0.8" d="M5.97839 39.8045L8.22146 24.017L24.009 26.2601L21.7659 42.0476L5.97839 39.8045Z" fill="#5D6F6D"/>
<path opacity="0.8" d="M8.22146 6.01221L24.009 8.25508L21.7659 24.0426L5.97839 21.7995L8.22146 6.01221Z" fill="#8CD592"/>
<path opacity="0.8" d="M39.7924 42.0495L24.0049 39.8064L26.2479 24.0189L42.0355 26.262L39.7924 42.0495Z" fill="#665E74"/>
<path opacity="0.8" d="M22.4329 47.924L12.8553 35.1746L25.605 25.5971L35.1825 38.3467L22.4329 47.924Z" fill="#3C3647"/>
<path opacity="0.8" d="M47.8993 25.5731L35.1499 35.1504L25.5724 22.401L38.322 12.8235L47.8993 25.5731Z" fill="#837193"/>
<path opacity="0.8" d="M25.5819 0.103882L35.1592 12.8533L22.4098 22.4308L12.8323 9.6812L25.5819 0.103882Z" fill="#A2F4AC"/>
<path opacity="0.8" d="M0.086792 22.4438L12.8364 12.8663L22.4137 25.6159L9.66429 35.1934L0.086792 22.4438Z" fill="#7EA685"/>
<path d="M23.993 17.9516L30.0553 24.014L23.993 30.0763L17.9308 24.014L23.993 17.9516Z" fill="#3C3647"/>
</g>
</g>
<defs>
<clipPath id="clip0_280_226">
<rect width="48" height="48" fill="white"/>
</clipPath>
<clipPath id="clip1_280_226">
<rect width="48" height="48" fill="white"/>
</clipPath>
</defs>
</svg>
