<svg width="48" height="48" viewBox="0 0 48 48" fill="none" xmlns="http://www.w3.org/2000/svg">
<g clip-path="url(#clip0_280_188)">
<g clip-path="url(#clip1_280_188)">
<mask id="mask0_280_188" style="mask-type:alpha" maskUnits="userSpaceOnUse" x="-1" y="0" width="49" height="48">
<path fill-rule="evenodd" clip-rule="evenodd" d="M34.0376 47.6723C34.4196 47.8212 34.8281 47.8899 35.2378 47.8741C35.6474 47.8584 36.0495 47.7586 36.4189 47.5808L46.3013 42.8254C46.8102 42.5804 47.2396 42.1967 47.5401 41.7185C47.8407 41.2402 48.0001 40.6869 48 40.1221V7.87843C48.0001 7.31354 47.8408 6.76009 47.5402 6.28177C47.2397 5.80345 46.8102 5.4197 46.3013 5.17468L36.4189 0.420053C35.8605 0.151368 35.2323 0.0629042 34.6214 0.166905C34.0105 0.270906 33.4471 0.562228 33.009 1.00055L14.0903 18.2603L5.85001 12.0049C5.47824 11.7228 5.01947 11.5797 4.55324 11.6004C4.08701 11.6211 3.64272 11.8043 3.29739 12.1182L0.654387 14.5223C0.448418 14.7096 0.283817 14.9379 0.171115 15.1925C0.0584128 15.4471 9.02879e-05 15.7224 -0.000121491 16.0008C-0.000333271 16.2792 0.0575703 16.5546 0.169885 16.8094C0.2822 17.0641 0.446453 17.2927 0.652137 17.4803L7.79851 24.0001L0.652512 30.5202C0.44694 30.7079 0.282785 30.9364 0.17054 31.1911C0.0582953 31.4458 0.000429279 31.7211 0.000641036 31.9995C0.000852794 32.2778 0.0591377 32.5531 0.17177 32.8076C0.284403 33.0622 0.448905 33.2904 0.654762 33.4778L3.29776 35.8819C3.64305 36.1959 4.08732 36.3791 4.55355 36.3999C5.01978 36.4206 5.47857 36.2776 5.85039 35.9956L14.0906 29.7406L33.0094 46.9999C33.3022 47.2926 33.652 47.5216 34.0376 47.6723ZM36.0071 13.1037L21.6525 24.0001L36.0075 34.8968L36.0071 13.1037Z" fill="white"/>
</mask>
<g mask="url(#mask0_280_188)">
<path d="M46.3016 5.18255L36.4114 0.420053C35.8528 0.151023 35.2243 0.0623719 34.6131 0.16638C34.0019 0.270389 33.4382 0.561908 33 1.00055L0.623243 30.5202C0.417517 30.7078 0.253223 30.9362 0.140879 31.191C0.0285341 31.4457 -0.029386 31.7211 -0.0291742 31.9995C-0.0289624 32.2779 0.0293766 32.5532 0.142109 32.8078C0.25484 33.0623 0.419481 33.2905 0.625493 33.4778L3.26999 35.8819C3.61538 36.1963 4.05995 36.3798 4.52651 36.4005C4.99308 36.4213 5.45218 36.278 5.82412 35.9956L44.8132 6.41743C46.1212 5.42518 48 6.35818 48 7.99993V7.88518C48 7.32045 47.8406 6.76719 47.5402 6.28902C47.2397 5.81085 46.8104 5.42757 46.3016 5.18255Z" fill="#0065A9"/>
<g filter="url(#filter0_d_280_188)">
<path d="M46.3016 42.818L36.4114 47.5797C35.8528 47.8489 35.2245 47.9376 34.6132 47.8338C34.002 47.7299 33.4383 47.4385 33 47L0.623243 17.48C0.417517 17.2924 0.253223 17.0639 0.140879 16.8092C0.0285341 16.5545 -0.029386 16.2791 -0.0291742 16.0007C-0.0289624 15.7223 0.0293766 15.447 0.142109 15.1924C0.25484 14.9378 0.419481 14.7096 0.625493 14.5223L3.26999 12.1182C3.61538 11.8039 4.05995 11.6204 4.52651 11.5996C4.99308 11.5789 5.45218 11.7222 5.82412 12.0046L44.8132 41.5824C46.1212 42.575 48 41.642 48 40.0002V40.115C48 40.6797 47.8406 41.233 47.5402 41.7111C47.2397 42.1893 46.8104 42.573 46.3016 42.818Z" fill="#007ACC"/>
</g>
<g filter="url(#filter1_d_280_188)">
<path d="M36.4117 47.5808C35.853 47.8493 35.2246 47.9376 34.6134 47.8336C34.0022 47.7295 33.4385 47.4382 33 46.9999C34.107 48.1069 36 47.3228 36 45.7571V2.24252C36 0.676895 34.107 -0.10723 33 1.00015C33.4385 0.561841 34.0022 0.270534 34.6134 0.166478C35.2246 0.0624221 35.853 0.150755 36.4117 0.41927L46.3001 5.17502C46.8093 5.41988 47.239 5.80356 47.5398 6.28189C47.8405 6.76022 48 7.31376 48 7.87877V40.122C48 40.687 47.8405 41.2406 47.5398 41.7189C47.239 42.1972 46.8093 42.5809 46.3001 42.8258L36.4117 47.5808Z" fill="#1F9CF0"/>
</g>
<path opacity="0.25" fill-rule="evenodd" clip-rule="evenodd" d="M34.0088 47.6724C34.3907 47.8213 34.7991 47.8899 35.2087 47.8742C35.6183 47.8584 36.0203 47.7586 36.3897 47.5809L46.272 42.8256C46.781 42.5805 47.2105 42.1968 47.511 41.7185C47.8115 41.2401 47.9709 40.6867 47.9708 40.1218V7.87855C47.9709 7.31366 47.8115 6.76021 47.511 6.28189C47.2105 5.80357 46.781 5.41982 46.272 5.1748L36.3897 0.420175C35.8312 0.15149 35.2031 0.0630263 34.5922 0.167027C33.9813 0.271028 33.4178 0.56235 32.9798 1.00068L14.061 18.2604L5.82078 12.0054C5.449 11.7233 4.99023 11.5802 4.52401 11.6009C4.05778 11.6216 3.61349 11.8048 3.26815 12.1187L0.625153 14.5228C0.419235 14.7102 0.25468 14.9384 0.142011 15.193C0.029342 15.4476 -0.0289625 15.7229 -0.0291742 16.0013C-0.029386 16.2797 0.0284996 16.5551 0.140781 16.8098C0.253063 17.0646 0.41727 17.2931 0.622903 17.4808L7.76928 24.0002L0.623278 30.5199C0.417594 30.7076 0.253341 30.9361 0.141026 31.1908C0.0287108 31.4456 -0.0291928 31.721 -0.028981 31.9994C-0.0287693 32.2778 0.0295532 32.5532 0.142256 32.8077C0.254958 33.0623 0.419558 33.2906 0.625528 33.4779L3.26853 35.882C3.61382 36.196 4.05808 36.3793 4.52431 36.4C4.99054 36.4208 5.44933 36.2777 5.82115 35.9957L14.0618 29.7403L32.9805 47.0001C33.2732 47.2927 33.6233 47.5216 34.0088 47.6724ZM35.9783 13.1034L21.6233 24.0002L35.9783 34.8966V13.1034Z" fill="url(#paint0_linear_280_188)"/>
</g>
</g>
</g>
<defs>
<filter id="filter0_d_280_188" x="-1.07092" y="10.5559" width="50.1127" height="38.3618" filterUnits="userSpaceOnUse" color-interpolation-filters="sRGB">
<feFlood flood-opacity="0" result="BackgroundImageFix"/>
<feColorMatrix in="SourceAlpha" type="matrix" values="0 0 0 0 0 0 0 0 0 0 0 0 0 0 0 0 0 0 127 0" result="hardAlpha"/>
<feOffset/>
<feGaussianBlur stdDeviation="0.520875"/>
<feColorMatrix type="matrix" values="0 0 0 0 0 0 0 0 0 0 0 0 0 0 0 0 0 0 0.25 0"/>
<feBlend mode="overlay" in2="BackgroundImageFix" result="effect1_dropShadow_280_188"/>
<feBlend mode="normal" in="SourceGraphic" in2="effect1_dropShadow_280_188" result="shape"/>
</filter>
<filter id="filter1_d_280_188" x="31.9583" y="-0.917727" width="17.0835" height="49.8355" filterUnits="userSpaceOnUse" color-interpolation-filters="sRGB">
<feFlood flood-opacity="0" result="BackgroundImageFix"/>
<feColorMatrix in="SourceAlpha" type="matrix" values="0 0 0 0 0 0 0 0 0 0 0 0 0 0 0 0 0 0 127 0" result="hardAlpha"/>
<feOffset/>
<feGaussianBlur stdDeviation="0.520875"/>
<feColorMatrix type="matrix" values="0 0 0 0 0 0 0 0 0 0 0 0 0 0 0 0 0 0 0.25 0"/>
<feBlend mode="overlay" in2="BackgroundImageFix" result="effect1_dropShadow_280_188"/>
<feBlend mode="normal" in="SourceGraphic" in2="effect1_dropShadow_280_188" result="shape"/>
</filter>
<linearGradient id="paint0_linear_280_188" x1="23.9708" y1="0.123925" x2="23.9708" y2="47.8764" gradientUnits="userSpaceOnUse">
<stop stop-color="white"/>
<stop offset="1" stop-color="white" stop-opacity="0"/>
</linearGradient>
<clipPath id="clip0_280_188">
<rect width="48" height="48" fill="white"/>
</clipPath>
<clipPath id="clip1_280_188">
<rect width="48" height="48" fill="white"/>
</clipPath>
</defs>
</svg>
