<svg width="48" height="48" viewBox="0 0 48 48" fill="none" xmlns="http://www.w3.org/2000/svg">
<g clip-path="url(#clip0_256_148)">
<path d="M3.75657 20.5615C3.66382 20.5615 3.64063 20.5154 3.68701 20.4462L4.17396 19.8231C4.22034 19.7539 4.33628 19.7077 4.42904 19.7077H12.7073C12.8001 19.7077 12.8232 19.7769 12.7769 19.8462L12.3827 20.4462C12.3363 20.5154 12.2203 20.5846 12.1508 20.5846L3.75657 20.5615Z" fill="#00ACD7"/>
<path d="M0.255107 22.6846C0.162354 22.6846 0.139165 22.6384 0.185542 22.5692L0.672498 21.9461C0.718875 21.8769 0.834817 21.8307 0.927571 21.8307H11.5015C11.5942 21.8307 11.6406 21.9 11.6174 21.9692L11.4319 22.5231C11.4087 22.6154 11.316 22.6615 11.2232 22.6615L0.255107 22.6846Z" fill="#00ACD7"/>
<path d="M5.86668 24.8077C5.77393 24.8077 5.75074 24.7385 5.79711 24.6692L6.12175 24.0923C6.16813 24.0231 6.26088 23.9539 6.35364 23.9539H10.9913C11.0841 23.9539 11.1304 24.0231 11.1304 24.1154L11.0841 24.6692C11.0841 24.7615 10.9913 24.8308 10.9218 24.8308L5.86668 24.8077Z" fill="#00ACD7"/>
<path d="M29.9362 20.1462C28.4754 20.5154 27.4783 20.7923 26.0406 21.1615C25.6928 21.2538 25.6696 21.2769 25.3681 20.9308C25.0203 20.5385 24.7652 20.2846 24.2783 20.0538C22.8174 19.3385 21.4029 19.5462 20.0812 20.4C18.5044 21.4154 17.6928 22.9154 17.7159 24.7846C17.7391 26.6308 19.0145 28.1538 20.8464 28.4077C22.4232 28.6154 23.7449 28.0615 24.7884 26.8846C24.9971 26.6308 25.1826 26.3538 25.4145 26.0308C24.5797 26.0308 23.5362 26.0308 20.9391 26.0308C20.4522 26.0308 20.3362 25.7308 20.4986 25.3385C20.8 24.6231 21.3565 23.4231 21.6812 22.8231C21.7507 22.6846 21.913 22.4538 22.2609 22.4538C23.4435 22.4538 27.8029 22.4538 30.7015 22.4538C30.6551 23.0769 30.6551 23.7 30.5623 24.3231C30.3073 25.9846 29.6812 27.5077 28.6609 28.8462C26.9913 31.0385 24.8116 32.4 22.0522 32.7692C19.7797 33.0692 17.6696 32.6308 15.8145 31.2462C14.0986 29.9538 13.1246 28.2462 12.8696 26.1231C12.5681 23.6077 13.3102 21.3462 14.8406 19.3615C16.487 17.2154 18.6667 15.8538 21.3333 15.3692C23.513 14.9769 25.6 15.2308 27.4783 16.5C28.7073 17.3077 29.5884 18.4154 30.1681 19.7538C30.3073 19.9615 30.2145 20.0769 29.9362 20.1462Z" fill="#00ACD7"/>
<path d="M37.6116 32.9077C35.5015 32.8615 33.5768 32.2615 31.9536 30.8769C30.5855 29.7 29.7276 28.2 29.4493 26.4231C29.0319 23.8154 29.7508 21.5077 31.3276 19.4538C33.0203 17.2385 35.0609 16.0846 37.8203 15.6C40.1855 15.1846 42.4116 15.4154 44.429 16.7769C46.2609 18.0231 47.3971 19.7077 47.6986 21.9231C48.0928 25.0385 47.1884 27.5769 45.0319 29.7461C43.5015 31.2923 41.6232 32.2615 39.4667 32.7C38.8406 32.8154 38.2145 32.8385 37.6116 32.9077ZM43.1305 23.5846C43.1073 23.2846 43.1073 23.0538 43.0609 22.8231C42.6435 20.5385 40.5334 19.2461 38.3305 19.7538C36.1739 20.2385 34.7826 21.6 34.2725 23.7692C33.8551 25.5692 34.7363 27.3923 36.4058 28.1308C37.6812 28.6846 38.9565 28.6154 40.1855 27.9923C42.0174 27.0461 43.0145 25.5692 43.1305 23.5846Z" fill="#00ACD7"/>
</g>
<defs>
<clipPath id="clip0_256_148">
<rect width="48" height="18" fill="white" transform="translate(0 15)"/>
</clipPath>
</defs>
</svg>
