<svg width="48" height="48" viewBox="0 0 48 48" fill="none" xmlns="http://www.w3.org/2000/svg">
<g clip-path="url(#clip0_256_346)">
<path d="M8.85304 41.8015L5.48254 4H42.5175L39.1425 41.7955L23.9775 46L8.85304 41.8015Z" fill="#E44F26"/>
<path d="M24 42.787L36.255 39.3895L39.138 7.09149H24V42.787Z" fill="#F1662A"/>
<path d="M24 21.1105H17.865L17.442 16.363H24V11.7265H12.375L12.486 12.9715L13.6245 25.747H24V21.1105ZM24 33.151L23.979 33.157L18.816 31.7635L18.486 28.066H13.8315L14.481 35.344L23.979 37.981L24 37.975V33.151Z" fill="#EBEBEB"/>
<path d="M23.9835 21.1105V25.747H29.6925L29.1555 31.7605L23.9835 33.1555V37.9795L33.489 35.344L33.558 34.561L34.647 22.3555L34.761 21.1105H23.9835ZM23.9835 11.7265V16.363H35.1825L35.2755 15.322L35.487 12.9715L35.598 11.7265H23.9835Z" fill="#D7E3EA"/>
</g>
<defs>
<clipPath id="clip0_256_346">
<rect width="48" height="48" fill="white"/>
</clipPath>
</defs>
</svg>
