<svg width="48" height="48" viewBox="0 0 48 48" fill="none" xmlns="http://www.w3.org/2000/svg">
<g clip-path="url(#clip0_256_173)">
<path d="M17.8564 36.795C17.8564 36.795 16.0687 37.8353 19.1302 38.1863C22.8397 38.61 24.7354 38.5493 28.8221 37.7768C28.8221 37.7768 29.8987 38.4499 31.3995 39.0334C22.2349 42.9597 10.659 38.8058 17.8564 36.795ZM16.7359 31.6707C16.7359 31.6707 14.7304 33.1553 17.7945 33.4725C21.7571 33.8817 24.8857 33.915 30.3022 32.8725C30.3022 32.8725 31.0496 33.6319 32.2267 34.0467C21.1485 37.2867 8.80949 34.3017 16.7359 31.6707Z" fill="#0074BD"/>
<path d="M26.1757 22.9766C28.4351 25.5772 25.5832 27.9154 25.5832 27.9154C25.5832 27.9154 31.3166 24.9562 28.6841 21.249C26.2245 17.7934 24.339 16.077 34.5472 10.1565C34.5472 10.1569 18.5231 14.1577 26.1757 22.9766Z" fill="#EA2D2E"/>
<path d="M38.2962 40.5859C38.2962 40.5859 39.6195 41.6771 36.8382 42.5205C31.5499 44.1225 14.8234 44.6055 10.1779 42.5846C8.50878 41.8579 11.64 40.8502 12.6252 40.6376C13.6523 40.4152 14.2388 40.4557 14.2388 40.4557C12.3814 39.1481 2.23391 43.0245 9.08516 44.1364C27.768 47.1649 43.1415 42.7725 38.2962 40.5859ZM18.717 26.3602C18.717 26.3602 10.2098 28.3811 15.7047 29.1157C18.0252 29.4262 22.6489 29.355 26.9588 28.9935C30.48 28.6976 34.0137 28.0657 34.0137 28.0657C34.0137 28.0657 32.7732 28.5979 31.8747 29.2106C23.2339 31.4835 6.54566 30.4249 11.3505 28.1014C15.4125 26.1367 18.717 26.3602 18.717 26.3602ZM33.9784 34.8904C42.7613 30.3277 38.7 25.9429 35.8654 26.5335C35.1724 26.6779 34.8615 26.8035 34.8615 26.8035C34.8615 26.8035 35.1195 26.3989 35.6115 26.2249C41.2189 24.2542 45.5307 32.0385 33.8029 35.1217C33.8029 35.121 33.9375 34.9991 33.9784 34.8904Z" fill="#0074BD"/>
<path d="M28.6842 0.595154C28.6842 0.595154 33.5472 5.46115 24.0706 12.9413C16.4708 18.9435 22.3377 22.365 24.0679 26.2759C19.6313 22.2735 16.3771 18.7497 18.5599 15.4703C21.7654 10.6575 30.6458 8.32315 28.6842 0.595154Z" fill="#EA2D2E"/>
<path d="M19.5803 47.2579C28.0088 47.7967 40.9553 46.9579 41.2616 42.9694C41.2616 42.9694 40.6725 44.4814 34.2953 45.681C27.1005 47.0355 18.225 46.8776 12.9626 46.0087C12.9626 46.0091 14.0408 46.9016 19.5803 47.2579Z" fill="#0074BD"/>
</g>
<defs>
<clipPath id="clip0_256_173">
<rect width="48" height="48" fill="white"/>
</clipPath>
</defs>
</svg>
