<svg width="48" height="48" viewBox="0 0 48 48" fill="none" xmlns="http://www.w3.org/2000/svg">
<g clip-path="url(#clip0_256_365)">
<path d="M0 24C0 30.9724 10.7452 36.6251 24 36.6251C37.2547 36.6251 48 30.9724 48 24C48 17.0276 37.2544 11.3749 24 11.3749C10.7456 11.3749 0 17.0276 0 24Z" fill="url(#paint0_radial_256_365)"/>
<path d="M24 35.6876C36.7369 35.6876 47.0625 30.4545 47.0625 24C47.0625 17.5448 36.7369 12.3124 24 12.3124C11.2631 12.3124 0.9375 17.5448 0.9375 24C0.9375 30.4545 11.2631 35.6876 24 35.6876Z" fill="#777BB3"/>
<path d="M13.0395 25.449C14.0868 25.449 14.8683 25.2558 15.363 24.8752C15.8527 24.498 16.1906 23.8451 16.368 22.9346C16.533 22.0833 16.47 21.4893 16.1805 21.1683C15.885 20.8406 15.2456 20.6745 14.2803 20.6745H12.6063L11.679 25.449H13.0395ZM7.56483 31.3301C7.52642 31.33 7.4885 31.3215 7.45379 31.3051C7.41908 31.2886 7.38844 31.2647 7.36406 31.235C7.33969 31.2053 7.32218 31.1706 7.31281 31.1334C7.30343 31.0961 7.30241 31.0573 7.30983 31.0196L9.7687 18.3678C9.78032 18.3087 9.81209 18.2554 9.85858 18.2171C9.90508 18.1787 9.96343 18.1576 10.0237 18.1575H15.324C16.9897 18.1575 18.2295 18.6097 19.0091 19.5018C19.7921 20.3981 20.0343 21.6521 19.728 23.2275C19.6031 23.8691 19.3886 24.465 19.0905 24.999C18.7802 25.5483 18.3842 26.0445 17.9175 26.469C17.3433 27.006 16.6935 27.396 15.9873 27.6251C15.2928 27.8516 14.4003 27.9663 13.3361 27.9663H11.1896L10.5768 31.1193C10.5653 31.1787 10.5334 31.2322 10.4868 31.2706C10.4401 31.3091 10.3815 31.3301 10.3211 31.3301H7.56483Z" fill="#1C2328"/>
<path d="M12.8212 20.9347H14.2804C15.4455 20.9347 15.8501 21.1905 15.9877 21.3431C16.2154 21.5959 16.2589 22.1295 16.1119 22.8851C15.9472 23.7315 15.642 24.3319 15.2044 24.6686C14.7566 25.0136 14.0276 25.1884 13.0395 25.1884H11.9947L12.8212 20.9347ZM15.324 17.8972H10.0241C9.90324 17.8972 9.78614 17.9392 9.69283 18.0161C9.59953 18.0929 9.53582 18.1997 9.5126 18.3184L7.05373 30.9705C7.03921 31.0458 7.04151 31.1235 7.06046 31.1979C7.07942 31.2722 7.11457 31.3415 7.1634 31.4007C7.21222 31.4599 7.27353 31.5076 7.34292 31.5404C7.41232 31.5732 7.4881 31.5902 7.56485 31.5904H10.3211C10.442 31.5902 10.559 31.5481 10.6522 31.4712C10.7455 31.3944 10.8091 31.2875 10.8322 31.1689L11.4041 28.2266H13.3357C14.4277 28.2266 15.3472 28.1074 16.0684 27.8726C16.8097 27.6319 17.4919 27.2235 18.0956 26.6587C18.5818 26.216 18.9944 25.6987 19.3177 25.1261C19.6294 24.5685 19.8536 23.946 19.9834 23.277C20.3059 21.6184 20.0437 20.2905 19.2049 19.3305C18.3739 18.3791 17.0681 17.8969 15.324 17.8969V17.8972ZM11.3629 25.7089H13.0395C14.1507 25.7091 14.9782 25.4997 15.522 25.0807C16.0657 24.6622 16.433 23.9634 16.6237 22.9841C16.8057 22.0436 16.7226 21.3801 16.3744 20.9936C16.0256 20.6071 15.3276 20.4139 14.2804 20.4139H12.3919L11.3629 25.7089ZM15.3244 18.417C16.9189 18.417 18.0817 18.8355 18.813 19.6725C19.5442 20.5095 19.7642 21.6777 19.473 23.1772C19.3525 23.7952 19.1494 24.36 18.8636 24.8715C18.5774 25.3835 18.2035 25.8519 17.742 26.2766C17.192 26.7916 16.5805 27.1585 15.9075 27.3772C15.2347 27.5962 14.3776 27.7056 13.3361 27.7054H10.9751L10.3215 31.0691H7.56523L10.0245 18.417H15.3244Z" fill="#D7E3EA"/>
<path d="M26.0471 27.9664C26.0087 27.9664 25.9708 27.958 25.936 27.9416C25.9012 27.9252 25.8705 27.9014 25.846 27.8717C25.8216 27.8421 25.804 27.8074 25.7946 27.7701C25.7851 27.7329 25.784 27.694 25.7914 27.6563L26.8789 22.0583C26.9828 21.5258 26.9573 21.144 26.8076 20.982C26.7158 20.8834 26.4405 20.718 25.6264 20.718H23.6554L22.2881 27.756C22.2764 27.8153 22.2445 27.8686 22.1977 27.9069C22.151 27.9452 22.0924 27.9661 22.032 27.966H19.2983C19.2599 27.966 19.2219 27.9576 19.1872 27.9412C19.1524 27.9249 19.1217 27.9011 19.0972 27.8715C19.0728 27.8419 19.0551 27.8072 19.0456 27.77C19.0361 27.7328 19.0349 27.694 19.0421 27.6563L21.5014 15.0041C21.513 14.9449 21.5449 14.8915 21.5916 14.8531C21.6382 14.8147 21.6967 14.7938 21.7571 14.7938H24.4909C24.5293 14.7937 24.5672 14.8022 24.602 14.8185C24.6367 14.8349 24.6675 14.8587 24.6919 14.8883C24.7164 14.9179 24.734 14.9525 24.7436 14.9897C24.7531 15.0269 24.7543 15.0658 24.747 15.1035L24.1538 18.1575H26.2736C27.8888 18.1575 28.9838 18.4418 29.6216 19.0279C30.2715 19.6253 30.4748 20.5804 30.2246 21.8678L29.0805 27.756C29.0688 27.8152 29.0369 27.8685 28.9903 27.9068C28.9436 27.9451 28.8851 27.966 28.8248 27.966L26.0471 27.9664Z" fill="#1C2328"/>
<path d="M24.4912 14.5331H21.7571C21.6362 14.5332 21.519 14.5752 21.4257 14.6521C21.3324 14.729 21.2687 14.836 21.2456 14.9546L18.7867 27.6064C18.7721 27.6818 18.7744 27.7595 18.7933 27.8339C18.8122 27.9083 18.8474 27.9776 18.8962 28.0369C18.945 28.0961 19.0064 28.1439 19.0758 28.1767C19.1452 28.2095 19.221 28.2266 19.2978 28.2266H22.032C22.1529 28.2266 22.27 28.1846 22.3633 28.1077C22.4566 28.0308 22.5203 27.9238 22.5435 27.8051L23.8698 20.9783H25.6256C26.4386 20.9783 26.6096 21.1519 26.616 21.1598C26.6655 21.2123 26.7303 21.4579 26.6231 22.0088L25.5356 27.6064C25.521 27.6818 25.5233 27.7595 25.5422 27.834C25.5612 27.9084 25.5963 27.9778 25.6452 28.037C25.6941 28.0963 25.7554 28.144 25.8249 28.1768C25.8944 28.2096 25.9703 28.2266 26.0471 28.2266H28.8251C28.9459 28.2265 29.063 28.1844 29.1562 28.1075C29.2495 28.0307 29.3131 27.9238 29.3362 27.8051L30.4803 21.9176C30.7485 20.5354 30.519 19.4989 29.7978 18.8363C29.1093 18.204 27.9566 17.8969 26.2736 17.8969H24.4698L25.0027 15.1538C25.0174 15.0783 25.0151 15.0006 24.9962 14.9261C24.9773 14.8516 24.9421 14.7822 24.8933 14.7229C24.8444 14.6636 24.783 14.6158 24.7135 14.583C24.644 14.5502 24.5681 14.5332 24.4912 14.5331ZM24.4912 15.0544L23.8376 18.4174H26.2736C27.8063 18.4174 28.8635 18.6849 29.445 19.2199C30.027 19.7544 30.2017 20.6206 29.9692 21.8186L28.8247 27.7058H26.0471L27.135 22.1078C27.2587 21.471 27.2131 21.0368 26.9981 20.805C26.7831 20.5735 26.3258 20.4578 25.6263 20.4578H23.4405L22.032 27.7054H19.2975L21.7567 15.0533H24.4912V15.0544Z" fill="#D7E3EA"/>
<path d="M34.551 25.449C35.5984 25.449 36.3803 25.2558 36.8753 24.8752C37.3643 24.498 37.7025 23.8451 37.8799 22.9346C38.0449 22.0833 37.9823 21.4893 37.6924 21.1683C37.3969 20.8406 36.7575 20.6745 35.7923 20.6745H34.1187L33.1905 25.449H34.551ZM29.0775 31.3301C29.0391 31.3302 29.0011 31.3217 28.9663 31.3053C28.9315 31.2889 28.9007 31.265 28.8763 31.2353C28.8518 31.2056 28.8342 31.1709 28.8248 31.1336C28.8154 31.0963 28.8144 31.0573 28.8218 31.0196L31.2807 18.3678C31.2923 18.3086 31.3242 18.2552 31.3708 18.2168C31.4175 18.1784 31.476 18.1575 31.5364 18.1575H36.8363C38.502 18.1575 39.7418 18.6097 40.521 19.5018C41.3044 20.3981 41.5463 21.6521 41.2399 23.2275C41.1227 23.848 40.9076 24.4459 40.6028 24.999C40.2925 25.5483 39.8966 26.0445 39.4298 26.469C38.856 27.006 38.2054 27.396 37.4997 27.6251C36.8052 27.8516 35.9127 27.9663 34.848 27.9663H32.7019L32.0895 31.1193C32.078 31.1787 32.0461 31.2323 31.9993 31.2707C31.9526 31.3092 31.8939 31.3302 31.8334 31.3301H29.0775Z" fill="#1C2328"/>
<path d="M34.3331 20.9347H35.7922C36.9573 20.9347 37.3619 21.1905 37.4992 21.3431C37.7279 21.5959 37.7707 22.1295 37.6241 22.8851C37.4591 23.7315 37.1538 24.3319 36.7162 24.6686C36.2681 25.0136 35.5391 25.1884 34.5513 25.1884H33.5066L34.3331 20.9347ZM36.8358 17.8972H31.5359C31.4151 17.8973 31.2981 17.9394 31.2049 18.0162C31.1117 18.093 31.048 18.1998 31.0248 18.3184L28.5656 30.9705C28.551 31.0459 28.5533 31.1235 28.5723 31.1979C28.5913 31.2723 28.6265 31.3416 28.6754 31.4009C28.7242 31.4601 28.7856 31.5078 28.855 31.5405C28.9245 31.5733 29.0003 31.5903 29.0771 31.5904H31.8333C31.9542 31.5902 32.0712 31.5481 32.1645 31.4712C32.2577 31.3944 32.3213 31.2875 32.3444 31.1689L32.9163 28.2266H34.8476C35.9392 28.2266 36.8591 28.1074 37.5798 27.8726C38.3216 27.6319 39.0037 27.2235 39.6078 26.6584C40.0939 26.2157 40.5063 25.6985 40.8296 25.1261C41.1416 24.5685 41.3651 23.946 41.4952 23.277C41.8177 21.6184 41.5559 20.2905 40.7167 19.3305C39.8857 18.3791 38.5803 17.8969 36.8354 17.8969L36.8358 17.8972ZM32.8747 25.7089H34.5509C35.6622 25.7091 36.4899 25.4997 37.0342 25.0807C37.5779 24.6622 37.9449 23.9634 38.1352 22.9841C38.3179 22.0436 38.2348 21.3801 37.8858 20.9936C37.5368 20.6071 36.8389 20.4139 35.7922 20.4139H33.9041L32.8747 25.7089ZM36.8358 18.417C38.4303 18.417 39.5932 18.8355 40.3244 19.6725C41.0557 20.5095 41.2756 21.6777 40.9841 23.1772C40.8641 23.7952 40.6611 24.36 40.3751 24.8715C40.0891 25.3835 39.7151 25.8519 39.2531 26.2766C38.7031 26.7916 38.0916 27.1585 37.4186 27.3772C36.7461 27.5962 35.8891 27.7056 34.8476 27.7054H32.4869L31.8326 31.0691H29.0763L31.5356 18.417H36.8358Z" fill="#D7E3EA"/>
</g>
<defs>
<radialGradient id="paint0_radial_256_365" cx="0" cy="0" r="1" gradientUnits="userSpaceOnUse" gradientTransform="translate(14.4097 15.8134) scale(31.5155 31.5155)">
<stop stop-color="#AEB2D5"/>
<stop offset="0.3" stop-color="#AEB2D5"/>
<stop offset="0.75" stop-color="#484C89"/>
<stop offset="1" stop-color="#484C89"/>
</radialGradient>
<clipPath id="clip0_256_365">
<rect width="48" height="48" fill="white"/>
</clipPath>
</defs>
</svg>
